# xmcd
#
# Track frame offsets:
# 150
# 16534
# 36424
# 54952
# 71968
# 89390
# 104904
# 120000
# 136389
# 150100
# 163844
# 176354
# 199896
# 212489
# 234622
# 254605
# 272505
# 288752
# 307180
#
# Disc length: 4385 seconds
#
# Revision: 0
# Processed by: cddbd v1.5.2PL0 Copyright (c) Steve Scherf et al.
# Submitted via: Audion 3.0.2 (http://www.panic.com/audion/)
#
DISCID=07111f13
DTITLE=Conte Paolo - Tournee
DYEAR=1900
DGENRE=
TTITLE0=Ouverture alla russa
TTITLE1=Fuga all'inglese
TTITLE2=Come mi vuoi? 2
TTITLE3=Colleghi trascurati
TTITLE4=Pittori della domenica
TTITLE5=Ho ballato di tutto
TTITLE6=Anni
TTITLE7=Baci senza memoria
TTITLE8=Happy feet
TTITLE9=Macaco
TTITLE10=Lupi spelacchiati
TTITLE11=Sparring partner
TTITLE12=Il maestro
TTITLE13=Madeleine
TTITLE14=Azzurro 2
TTITLE15=Pretend, pretend
TTITLE16=Reveries
TTITLE17=Luxury bound
TTITLE18=Bye, music
EXTD=
EXTT0=
EXTT1=
EXTT2=
EXTT3=
EXTT4=
EXTT5=
EXTT6=
EXTT7=
EXTT8=
EXTT9=
EXTT10=
EXTT11=
EXTT12=
EXTT13=
EXTT14=
EXTT15=
EXTT16=
EXTT17=
EXTT18=
PLAYORDER=
